<?xml version="1.0" encoding="UTF-8"?>
<svg xmlns="http://www.w3.org/2000/svg" width="791" height="791" xmlns:xlink="http://www.w3.org/1999/xlink" version="1.1" viewBox="0 0 791 791">
    <g id="Layer_1">
      <g>
        <path fill="#3A3A3A" d="M299.7,329.6c.5-4.2,3.2-8.2,6.9-10.4l81.8-47.3c2.1-1.3,4.5-1.9,6.9-1.9v-64.2c-8.2,0-16.5-2.1-23.6-6.4l-71.9-41.4v171.5Z"/>
        <path fill="#0B0B0B" d="M395.3,205.9v64.2c2.7,0,5,.5,7.4,1.9l81.8,47.3c3.2,1.9,5.3,4.8,6.4,8v-169.1l-71.9,41.4c-7.4,4.2-15.4,6.4-23.6,6.4Z"/>
        <path fill="#0B0B0B" d="M203.6,544.7l96.1,55.2V158.1l-96.1,55.2v331.3Z"/>
        <path fill="#3A3A3A" d="M587,213.3l-96.1-55.2v441.8l96.1-55.2V213.3Z"/>
        <path fill="#3A3A3A" d="M395.3,487.8c-2.4,0-4.8-.8-6.9-1.9l-81.8-47.3c-3.7-2.1-6.4-6.1-6.9-10.4v171.5l71.9-41.4c7.4-4.2,15.4-6.4,23.6-6.4v-64.3Z" />
        <path fill="#0B0B0B" d="M418.9,558.5l71.9,41.4v-169.1c-1.1,3.2-3.2,6.1-6.4,8l-81.8,47.3c-2.4,1.3-4.8,1.9-7.4,1.9v64.3c8.2,0,16.5,2.1,23.6,6.4Z"/>
      </g>
    </g>
</svg>