<svg width="311" height="311" viewBox="0 0 311 311" fill="none" xmlns="http://www.w3.org/2000/svg">
<g clip-path="url(#clip0_4930_4723)">
<path fill-rule="evenodd" clip-rule="evenodd" d="M158.188 -0.204648C156.352 -1.26512 154.088 -1.26512 152.252 -0.204648L21.9683 75.0145C20.1315 76.075 19 78.0348 19 80.1558V230.594C19 232.715 20.1315 234.675 21.9683 235.735L75.2651 266.506V196.197V155.161V117.441C75.2651 115.381 76.3335 113.467 78.0879 112.387L115.232 89.5041L152.086 66.8008C153.995 65.6246 156.404 65.6246 158.313 66.8008L195.167 89.5041L232.311 112.387C234.065 113.467 235.134 115.381 235.134 117.441V155.161V192.882C235.134 194.942 234.065 196.856 232.311 197.936L195.167 220.819L158.313 243.522C156.532 244.619 154.767 242.769 154.767 240.678V207.063C154.767 205.059 156.607 203.537 158.313 202.486L192.344 181.522C194.098 180.441 195.167 178.528 195.167 176.467V142.063C195.167 140.002 194.098 138.089 192.344 137.008L158.313 116.044C156.404 114.868 153.995 114.868 152.086 116.044L118.055 137.008C116.301 138.089 115.232 140.002 115.232 142.063V165.598C115.232 165.606 115.225 165.614 115.216 165.614C115.207 165.614 115.2 165.621 115.2 165.63V251.35C115.2 251.359 115.207 251.366 115.216 251.366C115.22 251.366 115.223 251.368 115.226 251.37C115.23 251.373 115.232 251.377 115.232 251.383V289.581L152.252 310.954C154.088 312.015 156.352 312.015 158.188 310.954L288.472 235.735C290.308 234.675 291.44 232.715 291.44 230.594V80.1558C291.44 78.0348 290.308 76.075 288.472 75.0145L158.188 -0.204648Z" fill="#1A1B22"/>
</g>
<defs>
<clipPath id="clip0_4930_4723">
<rect width="311" height="311" fill="white"/>
</clipPath>
</defs>
</svg>
